<svg xmlns="http://www.w3.org/2000/svg" style="display:none">
  <symbol id="i-cloud" viewBox="0 0 24 24">
    <path fill="currentColor" d="M18.9 10.6A7 7 0 0 0 5.2 8.7 5.2 5.2 0 0 0 6 19h12.2A4.3 4.3 0 0 0 18.9 10.6ZM18.2 17H6a3.2 3.2 0 1 1 .4-6.4l.7-.1.2-.7a5 5 0 0 1 9.7 1.3l.1.7.7.1A2.3 2.3 0 0 1 18.2 17Z"/>
  </symbol>
  <symbol id="i-ai" viewBox="0 0 24 24">
    <path fill="currentColor" d="M9 2h6v2h2a3 3 0 0 1 3 3v2h2v6h-2v2a3 3 0 0 1-3 3h-2v2H9v-2H7a3 3 0 0 1-3-3v-2H2V9h2V7a3 3 0 0 1 3-3h2V2Zm8 4H7a1 1 0 0 0-1 1v10a1 1 0 0 0 1 1h10a1 1 0 0 0 1-1V7a1 1 0 0 0-1-1Zm-8 4h6v6H9v-6Z"/>
  </symbol>
  <symbol id="i-agents" viewBox="0 0 24 24">
    <path fill="currentColor" d="M12 2a5 5 0 0 1 5 5v1h1a4 4 0 0 1 4 4v6h-2v-6a2 2 0 0 0-2-2h-1v2a5 5 0 0 1-10 0V10H6a2 2 0 0 0-2 2v6H2v-6a4 4 0 0 1 4-4h1V7a5 5 0 0 1 5-5Zm3 5a3 3 0 1 0-6 0v5a3 3 0 0 0 6 0V7Z"/>
  </symbol>
  <symbol id="i-shield" viewBox="0 0 24 24">
    <path fill="currentColor" d="M12 2 20 6v7c0 5-3.4 9-8 9s-8-4-8-9V6l8-4Zm0 2.2L6 7v6c0 3.9 2.5 7 6 7s6-3.1 6-7V7l-6-2.8Z"/>
  </symbol>
  <symbol id="i-rocket" viewBox="0 0 24 24">
    <path fill="currentColor" d="M14 3c3.9 0 7 3.1 7 7 0 4.2-3.5 8.9-8.3 11.2l-1 .5-2.2-2.2.5-1C12.3 13.5 17 10 17 6a3 3 0 0 0-3-3h0Zm-6.5 6.5 3 3-1.8 1.8H6.5V12l1-1ZM5 15.5h2.8L5 18.3V15.5Zm5.5-5.5 3 3 1.8-1.8-3-3L10.5 10Z"/>
  </symbol>
  <symbol id="i-stack" viewBox="0 0 24 24">
    <path fill="currentColor" d="M12 2 2 7l10 5 10-5-10-5Zm0 8L2 5v3l10 5 10-5V5l-10 5Zm0 6L2 11v3l10 5 10-5v-3l-10 5Z"/>
  </symbol>
  <symbol id="i-briefcase" viewBox="0 0 24 24">
    <path fill="currentColor" d="M9 3h6a2 2 0 0 1 2 2v2h3a2 2 0 0 1 2 2v8a3 3 0 0 1-3 3H3a3 3 0 0 1-3-3V9a2 2 0 0 1 2-2h3V5a2 2 0 0 1 2-2Zm6 4V5H9v2h6Zm-2 5H11v2h2v-2Z"/>
  </symbol>
  <symbol id="i-check" viewBox="0 0 24 24">
    <path fill="currentColor" d="M9.2 16.6 4.9 12.3l1.4-1.4 2.9 2.9 8.5-8.5 1.4 1.4-9.9 9.9Z"/>
  </symbol>
  <symbol id="i-spark" viewBox="0 0 24 24">
    <path fill="currentColor" d="M12 2l1.2 4.2L17.4 8 13.2 9.2 12 13.4 10.8 9.2 6.6 8l4.2-1.8L12 2Zm7 9 1 3.2 3 1-3 1L19 19l-1-2.8-3-1 3-1 1-3.2ZM4 12l.9 2.6L7.5 15l-2.6.9L4 18.5l-.9-2.6L.5 15l2.6-.9L4 12Z"/>
  </symbol>
  <symbol id="i-link" viewBox="0 0 24 24">
    <path fill="currentColor" d="M10.6 13.4a1 1 0 0 0 1.4 1.4l3.8-3.8a3 3 0 0 0-4.2-4.2L9.8 8.6a3 3 0 0 0 0 4.2l.6.6 1.4-1.4-.6-.6a1 1 0 0 1 0-1.4l1.8-1.8a1 1 0 1 1 1.4 1.4l-3.8 3.8ZM13.4 10.6a1 1 0 0 0-1.4-1.4l-3.8 3.8a3 3 0 0 0 4.2 4.2l1.8-1.8a3 3 0 0 0 0-4.2l-.6-.6-1.4 1.4.6.6a1 1 0 0 1 0 1.4l-1.8 1.8a1 1 0 1 1-1.4-1.4l3.8-3.8Z"/>
  </symbol>
  <symbol id="i-copy" viewBox="0 0 24 24">
    <path fill="currentColor" d="M8 7a3 3 0 0 1 3-3h8a3 3 0 0 1 3 3v10a3 3 0 0 1-3 3h-8a3 3 0 0 1-3-3V7Zm3-1a1 1 0 0 0-1 1v10a1 1 0 0 0 1 1h8a1 1 0 0 0 1-1V7a1 1 0 0 0-1-1h-8ZM2 9a3 3 0 0 1 3-3h1v2H5a1 1 0 0 0-1 1v10a1 1 0 0 0 1 1h9v2H5a3 3 0 0 1-3-3V9Z"/>
  </symbol>
  <symbol id="i-github" viewBox="0 0 24 24">
    <path fill="currentColor" d="M12 2a10 10 0 0 0-3.2 19.5c.5.1.7-.2.7-.5v-1.8c-2.9.6-3.5-1.2-3.5-1.2-.5-1.2-1.1-1.5-1.1-1.5-.9-.6.1-.6.1-.6 1 .1 1.5 1 1.5 1 .9 1.5 2.4 1.1 3 .8.1-.7.4-1.1.7-1.3-2.3-.3-4.7-1.2-4.7-5.2 0-1.1.4-2 1-2.7-.1-.2-.4-1.3.1-2.7 0 0 .8-.3 2.8 1a9.7 9.7 0 0 1 5.1 0c2-1.3 2.8-1 2.8-1 .5 1.4.2 2.5.1 2.7.6.7 1 1.6 1 2.7 0 4-2.4 4.9-4.7 5.2.4.3.7.9.7 1.9V21c0 .3.2.6.7.5A10 10 0 0 0 12 2Z"/>
  </symbol>
  <symbol id="i-linkedin" viewBox="0 0 24 24">
    <path fill="currentColor" d="M4.98 3.5A2.48 2.48 0 1 1 5 8.5a2.48 2.48 0 0 1-.02-5ZM3.5 21V9H6.5v12h-3ZM9 9h2.9v1.6h.04c.4-.8 1.4-1.7 3-1.7 3.2 0 3.8 2.1 3.8 4.9V21h-3v-5.3c0-1.3 0-2.9-1.8-2.9s-2 1.4-2 2.8V21H9V9Z"/>
  </symbol>
  <symbol id="i-sun" viewBox="0 0 24 24">
    <path fill="currentColor" d="M12 18a6 6 0 1 1 0-12 6 6 0 0 1 0 12Zm0-2a4 4 0 1 0 0-8 4 4 0 0 0 0 8ZM11 2h2v3h-2V2Zm0 19h2v3h-2v-3ZM2 11h3v2H2v-2Zm19 0h3v2h-3v-2ZM4.2 4.2l2.1 2.1-1.4 1.4-2.1-2.1 1.4-1.4Zm15.1 15.1 2.1 2.1-1.4 1.4-2.1-2.1 1.4-1.4ZM19.8 4.2l1.4 1.4-2.1 2.1-1.4-1.4 2.1-2.1ZM4.2 19.8l1.4-1.4 2.1 2.1-1.4 1.4-2.1-2.1Z"/>
  </symbol>
  <symbol id="i-moon" viewBox="0 0 24 24">
    <path fill="currentColor" d="M21 14.6A8.5 8.5 0 0 1 9.4 3a7 7 0 1 0 11.6 11.6ZM12 20a9 9 0 0 1-3.2-17.4 1 1 0 0 1 1.2 1.4A6.5 6.5 0 1 0 20 14a1 1 0 0 1 1.4 1.2A9 9 0 0 1 12 20Z"/>
  </symbol>
</svg>


