<svg xmlns="http://www.w3.org/2000/svg" style="display:none">
  <symbol id="i-cloud" viewBox="0 0 24 24">
    <path fill="currentColor" d="M18.9 10.6A7 7 0 0 0 5.2 8.7 5.2 5.2 0 0 0 6 19h12.2A4.3 4.3 0 0 0 18.9 10.6ZM18.2 17H6a3.2 3.2 0 1 1 .4-6.4l.7-.1.2-.7a5 5 0 0 1 9.7 1.3l.1.7.7.1A2.3 2.3 0 0 1 18.2 17Z"/>
  </symbol>
  <symbol id="i-ai" viewBox="0 0 24 24">
    <path fill="currentColor" d="M9 2h6v2h2a3 3 0 0 1 3 3v2h2v6h-2v2a3 3 0 0 1-3 3h-2v2H9v-2H7a3 3 0 0 1-3-3v-2H2V9h2V7a3 3 0 0 1 3-3h2V2Zm8 4H7a1 1 0 0 0-1 1v10a1 1 0 0 0 1 1h10a1 1 0 0 0 1-1V7a1 1 0 0 0-1-1Zm-8 4h6v6H9v-6Z"/>
  </symbol>
  <symbol id="i-agents" viewBox="0 0 24 24">
    <path fill="currentColor" d="M12 2a5 5 0 0 1 5 5v1h1a4 4 0 0 1 4 4v6h-2v-6a2 2 0 0 0-2-2h-1v2a5 5 0 0 1-10 0V10H6a2 2 0 0 0-2 2v6H2v-6a4 4 0 0 1 4-4h1V7a5 5 0 0 1 5-5Zm3 5a3 3 0 1 0-6 0v5a3 3 0 0 0 6 0V7Z"/>
  </symbol>
  <symbol id="i-shield" viewBox="0 0 24 24">
    <path fill="currentColor" d="M12 2 20 6v7c0 5-3.4 9-8 9s-8-4-8-9V6l8-4Zm0 2.2L6 7v6c0 3.9 2.5 7 6 7s6-3.1 6-7V7l-6-2.8Z"/>
  </symbol>
  <symbol id="i-rocket" viewBox="0 0 24 24">
    <path fill="currentColor" d="M14 3c3.9 0 7 3.1 7 7 0 4.2-3.5 8.9-8.3 11.2l-1 .5-2.2-2.2.5-1C12.3 13.5 17 10 17 6a3 3 0 0 0-3-3h0Zm-6.5 6.5 3 3-1.8 1.8H6.5V12l1-1ZM5 15.5h2.8L5 18.3V15.5Zm5.5-5.5 3 3 1.8-1.8-3-3L10.5 10Z"/>
  </symbol>
  <symbol id="i-stack" viewBox="0 0 24 24">
    <path fill="currentColor" d="M12 2 2 7l10 5 10-5-10-5Zm0 8L2 5v3l10 5 10-5V5l-10 5Zm0 6L2 11v3l10 5 10-5v-3l-10 5Z"/>
  </symbol>
  <symbol id="i-briefcase" viewBox="0 0 24 24">
    <path fill="currentColor" d="M9 3h6a2 2 0 0 1 2 2v2h3a2 2 0 0 1 2 2v8a3 3 0 0 1-3 3H3a3 3 0 0 1-3-3V9a2 2 0 0 1 2-2h3V5a2 2 0 0 1 2-2Zm6 4V5H9v2h6Zm-2 5H11v2h2v-2Z"/>
  </symbol>
  <symbol id="i-check" viewBox="0 0 24 24">
    <path fill="currentColor" d="M9.2 16.6 4.9 12.3l1.4-1.4 2.9 2.9 8.5-8.5 1.4 1.4-9.9 9.9Z"/>
  </symbol>
  <symbol id="i-spark" viewBox="0 0 24 24">
    <path fill="currentColor" d="M12 2l1.2 4.2L17.4 8 13.2 9.2 12 13.4 10.8 9.2 6.6 8l4.2-1.8L12 2Zm7 9 1 3.2 3 1-3 1L19 19l-1-2.8-3-1 3-1 1-3.2ZM4 12l.9 2.6L7.5 15l-2.6.9L4 18.5l-.9-2.6L.5 15l2.6-.9L4 12Z"/>
  </symbol>
</svg>


