<?xml version="1.0" encoding="UTF-8" standalone="no"?><!DOCTYPE svg PUBLIC "-//W3C//DTD SVG 1.1//EN" "http://www.w3.org/Graphics/SVG/1.1/DTD/svg11.dtd"><svg width="100%" height="100%" viewBox="0 0 333334 199332" version="1.1" xmlns="http://www.w3.org/2000/svg" xmlns:xlink="http://www.w3.org/1999/xlink" xml:space="preserve" xmlns:serif="http://www.serif.com/" style="fill-rule:evenodd;clip-rule:evenodd;stroke-linejoin:round;stroke-miterlimit:2;"><g id="Layer_x0020_1"><g id="amazon-web-services-2.svg"><path d="M93937,72393c0,4102 443,7428 1219,9867c887,2439 1996,5100 3548,7982c554,887 776,1774 776,2550c0,1109 -665,2217 -2106,3326l-6985,4656c-998,665 -1995,998 -2882,998c-1109,0 -2217,-554 -3326,-1552c-1552,-1663 -2882,-3437 -3991,-5211c-1109,-1885 -2217,-3991 -3437,-6541c-8648,10200 -19512,15299 -32594,15299c-9312,0 -16740,-2661 -22172,-7982c-5432,-5322 -8204,-12417 -8204,-21286c0,-9424 3326,-17073 10089,-22838c6763,-5765 15743,-8647 27161,-8647c3769,0 7650,332 11752,887c4102,554 8315,1441 12749,2439l0,-8093c0,-8426 -1774,-14301 -5211,-17738c-3548,-3437 -9534,-5100 -18071,-5100c-3880,0 -7871,443 -11973,1441c-4102,998 -8093,2217 -11973,3769c-1774,776 -3104,1219 -3880,1441c-776,222 -1330,332 -1774,332c-1552,0 -2328,-1109 -2328,-3437l0,-5432c0,-1774 222,-3104 776,-3880c554,-776 1552,-1552 3104,-2328c3880,-1996 8537,-3659 13969,-4989c5433,-1441 11197,-2106 17295,-2106c13193,0 22838,2993 29046,8980c6098,5987 9202,15077 9202,27272l0,35920l222,0l-1,1Zm-45011,16851c3659,0 7428,-665 11419,-1995c3991,-1330 7539,-3769 10532,-7095c1774,-2106 3104,-4435 3770,-7095c665,-2661 1108,-5876 1108,-9645l0,-4656c-3215,-776 -6652,-1441 -10199,-1885c-3548,-443 -6984,-665 -10421,-665c-7428,0 -12860,1441 -16519,4435c-3659,2993 -5432,7206 -5432,12749c0,5211 1330,9091 4102,11751c2661,2772 6541,4102 11641,4102l-1,-1Zm89023,11973c-1996,0 -3326,-332 -4213,-1109c-887,-665 -1663,-2217 -2328,-4324l-26053,-85697c-665,-2217 -998,-3658 -998,-4434c0,-1774 887,-2772 2661,-2772l10865,0c2106,0 3548,333 4324,1109c887,665 1552,2217 2217,4324l18625,73391l17295,-73391c554,-2217 1219,-3659 2106,-4324c887,-665 2439,-1109 4435,-1109l8869,0c2106,0 3548,333 4435,1109c887,665 1663,2217 2106,4324l17516,74278l19180,-74278c665,-2217 1441,-3659 2217,-4324c887,-665 2328,-1109 4324,-1109l10310,0c1774,0 2772,887 2772,2772c0,554 -111,1109 -222,1774c-111,665 -333,1552 -776,2772l-26718,85697c-665,2217 -1441,3658 -2328,4324c-887,665 -2328,1109 -4213,1109l-9534,0c-2107,0 -3548,-333 -4435,-1109c-887,-776 -1663,-2217 -2106,-4435l-17184,-71507l-17073,71396c-554,2217 -1220,3658 -2107,4434c-887,776 -2439,1109 -4434,1109l-9535,0Zm142459,2993c-5765,0 -11530,-665 -17073,-1995c-5543,-1330 -9867,-2772 -12749,-4435c-1774,-998 -2993,-2106 -3437,-3104c-443,-998 -665,-2106 -665,-3104l0,-5654c0,-2328 887,-3437 2550,-3437c665,0 1330,111 1995,333c665,222 1663,665 2772,1109c3769,1663 7871,2993 12195,3880c4435,887 8758,1330 13193,1330c6984,0 12417,-1220 16186,-3659c3769,-2439 5765,-5987 5765,-10532c0,-3104 -998,-5654 -2993,-7760c-1996,-2107 -5765,-3991 -11197,-5765l-16075,-4989c-8093,-2550 -14080,-6319 -17738,-11308c-3658,-4878 -5543,-10310 -5543,-16075c0,-4656 998,-8758 2993,-12306c1995,-3548 4656,-6652 7982,-9091c3326,-2550 7095,-4434 11530,-5765c4435,-1331 9091,-1885 13969,-1885c2439,0 4989,111 7428,443c2550,333 4878,776 7206,1219c2217,554 4324,1109 6319,1774c1995,665 3548,1330 4656,1996c1552,887 2661,1774 3326,2771c665,887 998,2107 998,3659l0,5211c0,2328 -887,3548 -2550,3548c-887,0 -2328,-444 -4213,-1331c-6319,-2882 -13415,-4324 -21286,-4324c-6319,0 -11308,998 -14745,3104c-3437,2106 -5211,5321 -5211,9867c0,3104 1109,5765 3326,7871c2217,2106 6319,4213 12195,6097l15743,4989c7982,2550 13747,6098 17184,10643c3437,4545 5100,9756 5100,15521c0,4767 -998,9091 -2882,12860c-1996,3770 -4656,7095 -8093,9756c-3437,2771 -7539,4767 -12306,6208c-4989,1552 -10199,2328 -15854,2328l-1,2Z" style="fill:#fff;"/><path d="M301362,158091c-36474,26940 -89467,41241 -135031,41241c-63858,0 -121395,-23614 -164854,-62859c-3437,-3104 -332,-7317 3770,-4878c47006,27272 104988,43791 164964,43791c40465,0 84921,-8426 125830,-25721c6097,-2772 11308,3991 5321,8426Z" style="fill:#f90;"/><path d="M316550,140796c-4656,-5987 -30820,-2883 -42682,-1441c-3548,443 -4102,-2661 -887,-4989c20842,-14634 55099,-10421 59090,-5543c3991,4989 -1109,39246 -20620,55653c-2993,2550 -5876,1220 -4545,-2106c4435,-10976 14301,-35698 9645,-41574l-1,0Z" style="fill:#f90;"/></g></g></svg>