<?xml version="1.0" encoding="UTF-8" standalone="no"?><!DOCTYPE svg PUBLIC "-//W3C//DTD SVG 1.1//EN" "http://www.w3.org/Graphics/SVG/1.1/DTD/svg11.dtd"><svg width="100%" height="100%" viewBox="0 0 830 834" version="1.1" xmlns="http://www.w3.org/2000/svg" xmlns:xlink="http://www.w3.org/1999/xlink" xml:space="preserve" xmlns:serif="http://www.serif.com/" style="fill-rule:evenodd;clip-rule:evenodd;stroke-linejoin:round;stroke-miterlimit:2;"><rect id="Page-1" serif:id="Page 1" x="0" y="0" width="829.167" height="833.333" style="fill:none;"/><g id="Capa-1" serif:id="Capa 1"><path d="M434.1,146.838l0.217,539.65c11.642,86.992 143.146,92.775 190.779,33.3c3.938,-4.912 14.542,-27.029 15.921,-27.846c1.367,-0.804 15.746,-2.663 19.929,-3.946c43.192,-13.292 72.496,-59.029 59.821,-103.954c50.113,-25.562 66.954,-94.342 30.6,-138.771c35.292,-44.129 16.767,-112.696 -33.308,-136.05c0.667,-6.296 3.588,-11.946 4.813,-18.171c8.696,-44.146 -23.012,-79.067 -65.854,-83.879c3.096,-52.354 -51.742,-86.138 -99.513,-74.213c-8.879,-26.167 -34.375,-38.862 -59.921,-38.862c-30.425,0.004 -60.925,18.017 -63.483,52.742Z" style="fill:url(#_Linear1);fill-rule:nonzero;"/><path d="M281.475,132.812c-33.517,-7.246 -71.867,5.192 -89.442,35.879c-2.446,4.267 -5.188,14.983 -7.104,17.788c-1.046,1.537 -11.392,4.767 -14.529,10.971c-2.138,4.217 -0.825,9.558 -1.675,10.925c-0.317,0.512 -9.254,2.95 -11.329,3.921c-35.688,16.675 -54.204,59.867 -36.4,96.412c-45.667,22.667 -63.508,78.471 -42.087,124.45c1.362,2.929 8.712,13.742 8.662,14.767c-0.046,0.85 -7.525,11.096 -9.075,14.375c-11.642,24.542 -11.525,52.167 -0.917,76.958c7.608,17.775 23.704,37.208 42.187,43.362c-2.796,14.033 -4.987,24.296 -2.225,38.692c7.383,38.487 42.3,65.975 80.588,69.279c26.854,87.004 193.779,97.438 206.888,-3.888c-1.363,-183.658 2.512,-367.783 -1.954,-551.171c-8.608,-27.529 -34.129,-40.892 -59.996,-40.887c-25.483,-0 -51.304,12.979 -61.592,38.167Z" style="fill:url(#_Linear2);fill-rule:nonzero;"/><path d="M617.162,256.63c47.896,9.546 69.75,63.683 54.375,107.429c24.983,3.833 44.492,27.733 49.779,51.692c1.467,6.658 0.825,16.921 2.221,21.65c0.712,2.425 8.55,8.671 10.892,11.654c24.579,31.329 10.033,77.637 -28.671,87.813c-8.117,2.133 -31.383,5.904 -28.708,-8.696c1.829,-9.975 17.933,-7.462 26.692,-10.558c23.438,-8.279 32.087,-39.387 14.913,-58.087c-4.396,-4.783 -10.587,-6.867 -15.062,-11.463c3.263,-27.371 -10.15,-60.863 -39.654,-66.442c-4.567,-0.867 -15.775,0.775 -18.271,-4.271c-3.888,-7.867 8.208,-22.425 9.621,-32.858c4.733,-35.012 -14.438,-63.917 -49.558,-69.117c-5.983,-0.887 -13.692,1.808 -17.054,-5.5c-2.971,-6.454 5.812,-12.983 8.425,-19.379c3.983,-9.762 4.079,-20.104 -0.471,-29.679c-3.067,-6.45 -11.383,-10.463 -7.938,-18.525c5.3,-12.412 18.342,-1.317 22.933,6.179c8.613,14.058 10.725,32.55 5.538,48.158" style="fill:#1d2646;fill-rule:nonzero;"/><path d="M528.316,434.348c10.438,-0.829 19.342,0.579 28.754,5.067c20.396,9.738 29.312,33.913 57.433,24.771c16.737,-5.442 17.2,-24.613 24.821,-26.9c7.442,-2.233 14.125,3.062 13.375,10.683c-1.708,17.325 -27.617,36.463 -44.167,38.1c-39.354,3.887 -46.083,-29.304 -72.938,-31.8c-29.858,-2.771 -51.808,29.879 -29.204,53.067c5.142,5.279 14.458,7.725 8.717,17.933c-7.479,13.308 -26.067,-4.633 -31.108,-12.783c-8.817,-14.246 -9.129,-32.062 -2.35,-47.204c7.887,-17.608 27.275,-25.217 29.404,-46.192c1.792,-17.633 -0.821,-29.758 -13.879,-41.792c-4.6,-4.237 -13.654,-6.946 -12.396,-14.942c0.35,-2.229 3.792,-6.633 6.004,-7.292c10.962,-3.271 25.137,10.812 30.663,19.183c11.808,17.896 13.85,39.917 6.871,60.1" style="fill:#1d2646;fill-rule:nonzero;"/><path d="M496.136,152.099c4.379,-0.892 11.246,2.083 15.408,3.938c19.133,8.517 35.179,30.258 32.333,51.858c-3.583,27.179 -39.208,38.863 -25.517,69.971c7.329,16.642 22.496,17.675 36.508,24.496c14.938,7.271 29.217,22 35.454,37.488c4.154,10.308 12.333,39.192 -8.017,34.542c-7.854,-1.796 -7.308,-17.208 -9.979,-24.5c-13.254,-36.179 -50.25,-27.729 -68.438,-56.229c-11.85,-18.575 -10.829,-40.667 -0.008,-59.458c8.596,-14.929 24.179,-21.479 17.492,-41.579c-5.612,-16.875 -27.996,-18.633 -31.875,-27.875c-1.904,-4.542 1.558,-11.617 6.637,-12.65" style="fill:#1d2646;fill-rule:nonzero;"/><path d="M622.473,601.461c12.192,0.375 23.592,-2.487 33.592,-9.512c6.562,-4.613 11.154,-14.85 19.467,-4.433c6.546,8.204 -4.304,17.592 -10.733,22.45c-12.95,9.792 -31.725,12.279 -47.425,10.279c-4.788,15.85 -26.479,35.917 -43.308,35.7c-6.608,-0.083 -11.175,-3.046 -11.404,-10.033c-0.354,-10.812 9.425,-8.175 17.433,-11.896c27.513,-12.787 29.208,-52.829 9.9,-73.679c-6.663,-7.196 -25.067,-13.842 -14.658,-25.242c9.267,-10.142 26.333,7.513 32.517,15.338c4.3,5.446 14.621,25.562 14.621,31.8l0,19.229Z" style="fill:#1d2646;fill-rule:nonzero;"/><path d="M502.764,591.084c6.421,-1.304 12.121,3.229 12.379,9.746c0.288,7.2 -6.121,11.929 -8.717,17.871c-8.254,18.883 -1.542,42.458 17.592,51.375c8.513,3.967 23.917,2.917 19.608,16.337c-4.533,14.133 -31.138,1.192 -39.071,-4.829c-19.413,-14.729 -25.35,-39.771 -19.375,-62.913c1.746,-6.767 10.5,-26.15 17.583,-27.587" style="fill:#1d2646;fill-rule:nonzero;"/><path d="M277.281,608.463c8.008,8.021 -4.337,24.396 -10.933,30.1c-46.996,40.629 -112.638,-25.783 -81.533,-75.55c-13.662,-1.529 -25.242,-3.867 -36.767,-11.65c-7.183,-4.85 -26.8,-23.3 -11.962,-29.8c9.992,-4.379 11.792,4.479 16.85,8.996c32.792,29.258 82.442,3.758 95.508,-33.217c-2.271,-3.188 -6.3,-1.462 -9.6,-2.296c-20.258,-5.104 -40.933,-22.617 -43.133,-44.496c-1.312,-13.079 11.608,-19.438 17.242,-7.858c7.617,15.646 10.462,31.1 32.321,33.988c18.792,2.483 19.837,-7.979 34.129,-14.713c19.288,-9.096 40.775,-4.962 53.133,-27.767c6.021,-11.108 2.262,-33.892 19.775,-28.733c15.079,4.442 -1.104,39.304 -7.667,47.471c-22.163,27.579 -45.15,15.312 -64.967,31.85c-13.417,11.2 -15.883,31.496 -27.25,45.692c-18.246,22.779 -57.375,28.146 -55.738,62.392c1.204,25.129 30.45,48.246 53.025,33.038c8.679,-5.846 15.279,-29.754 27.567,-17.446" style="fill:#1d2646;fill-rule:nonzero;"/><path d="M221.774,255.494c-30.254,1.321 -59.475,-29.521 -52.3,-59.95c2.367,-10.029 15.379,-9.688 16.683,-18.467c2.179,-0.354 1.3,1.738 1.167,3.142c-2.238,23.804 -0.75,45.171 24.454,55.429c12.804,5.208 8.283,1.283 10.492,-7.204c9.004,-34.604 42.488,-54.904 77.062,-43.546c3.708,-4.108 5.358,-9.267 8.858,-13.767c6.363,-8.188 30.008,-27.904 39.046,-15.254c7.775,10.879 -11.004,15.317 -17.742,20.646c-11.846,9.363 -10.512,17.771 -16.333,28.763c-5.042,9.517 -15.5,-0.729 -21.958,-2.642c-35.379,-10.483 -65.171,29.096 -45.638,60.221c3.879,6.179 18.183,14.938 8.175,23.567c-12.696,10.946 -31.146,-20.633 -31.967,-30.938" style="fill:#1d2646;fill-rule:nonzero;"/><path d="M153.914,475.087c-8.217,10.179 -20.296,-4.233 -24.562,-11.125c-23.792,-38.417 -1.862,-91.954 40.879,-103.892c-7.596,-15.367 -10.996,-29.708 -9.271,-47.05c0.842,-8.458 3.808,-16.487 13.787,-15.233c12.042,1.517 5.342,13.538 4.713,20.467c-3.208,35.363 30.733,61.675 64.079,48.171c7.196,-2.917 18.408,-15.304 24.913,-4.442c5.129,8.575 -3.479,14.45 -9.804,18.221c-15.829,9.446 -34.2,11.304 -51.871,6.333c-13.488,-3.796 -17.633,-13.717 -32.546,-8.521c-31.15,10.863 -45.292,49.404 -27.129,77.479c3.467,5.363 13.5,11.312 6.812,19.592" style="fill:#1d2646;fill-rule:nonzero;"/><path d="M329.017,514.163c6.071,-1.308 12.596,5.392 12.275,10.938c-0.454,7.917 -17.25,15.237 -18.562,30.612c-1.737,20.363 15.812,24.967 26.571,37.096c19.071,21.508 17.417,53.7 -4.642,72.342c-8.617,7.283 -32.546,20.487 -40.337,7.087c-7.233,-12.442 12.95,-14.75 19.825,-18.317c20.488,-10.633 23.533,-35.792 5.863,-51.104c-15.371,-13.325 -28.771,-19.404 -28.387,-44.25c0.204,-12.9 14.008,-41.525 27.396,-44.404" style="fill:#1d2646;fill-rule:nonzero;"/><path d="M351.553,246.405c12.242,12.217 -11.917,20.213 -18.892,26.121c-11.667,9.875 -17.683,25.167 -16.521,40.462c0.7,9.179 5.492,17.6 6.442,26.708c1.163,11.158 0.533,41.392 -17.462,36.025c-10.396,-3.1 -2.175,-21.754 -2.188,-29.558c-0.017,-10.812 -5.725,-19.917 -6.692,-30.525c-2.267,-24.975 8.142,-47.179 27.946,-62.196c6.133,-4.654 20.704,-13.688 27.367,-7.037" style="fill:#1d2646;fill-rule:nonzero;"/></g><defs><linearGradient id="_Linear1" x1="0" y1="0" x2="1" y2="0" gradientUnits="userSpaceOnUse" gradientTransform="matrix(136.450863,307.902368,-307.902368,136.450863,526.382255,359.046428)"><stop offset="0" style="stop-color:#de4eac;stop-opacity:1"/><stop offset="0" style="stop-color:#de4eac;stop-opacity:1"/><stop offset="0.9" style="stop-color:#f8834a;stop-opacity:1"/><stop offset="1" style="stop-color:#f8834a;stop-opacity:1"/></linearGradient><linearGradient id="_Linear2" x1="0" y1="0" x2="1" y2="0" gradientUnits="userSpaceOnUse" gradientTransform="matrix(204.500596,199.744829,-199.744829,204.500596,197.263368,322.168954)"><stop offset="0" style="stop-color:#11a2e8;stop-opacity:1"/><stop offset="0.94" style="stop-color:#6d4bc8;stop-opacity:1"/><stop offset="1" style="stop-color:#6d4bc8;stop-opacity:1"/></linearGradient></defs></svg>