<svg width="200" height="53" viewBox="0 0 200 53" fill="none" xmlns="http://www.w3.org/2000/svg">
  <g fill="#0AEB8B" clip-path="url(#platzi-logo-minty_svg__a)">
    <path fill-rule="evenodd" clip-rule="evenodd" d="M20.304 2.462 2.462 20.303a8.41 8.41 0 0 0 0 11.897l17.842 17.842a8.41 8.41 0 0 0 11.896 0l5.945-5.946-5.945-5.945-5.945 5.945L8.413 26.254 26.255 8.412 38.15 20.31 26.254 32.205l5.946 5.946 11.896-11.897a8.41 8.41 0 0 0 0-11.896L32.2 2.462a8.41 8.41 0 0 0-11.896 0"/>
    <path d="M192.283 13.785h7.043v33.597h-7.043zm-53.027-.09h-.621v5.838h5.384v20.544q.001 3.492 1.873 5.394c1.247 1.269 3.104 1.905 5.555 1.905h6.138v-5.752h-6.524V19.533h7.043v-5.839h-7.043V5.341h-6.33v4.174a4.18 4.18 0 0 1-4.175 4.18h-1.311zm56.548-4.127a4.19 4.19 0 1 0 .001-8.38 4.19 4.19 0 0 0-.001 8.38M95.84 47.392a4.19 4.19 0 0 1-4.19-4.19V5.378h7.042v36.256h4.65v5.753H98.82l-2.98.01zm65.903-.01v-5.689l18.029-22.16h-17.446v-5.839l25.778.091v5.427l-18.286 22.422h18.735v5.753h-26.816zm-27.052 0c-1.851 0-3.275-.525-4.265-1.584q-1.487-1.584-1.809-4.04h-.321q-.97 3.164-3.553 4.778-2.583 1.615-6.267 1.616-5.234 0-8.043-2.713-2.81-2.714-2.809-7.3-.002-5.04 3.649-7.56 3.652-2.521 10.692-2.521h6.074v-2.842q-.001-3.1-1.68-4.779-1.677-1.678-5.234-1.68c-1.98 0-3.596.433-4.848 1.29a11.6 11.6 0 0 0-3.168 3.296l-4.201-3.81q1.679-2.843 4.715-4.683 3.033-1.839 7.946-1.84 6.528-.001 10.013 3.034c2.328 2.023 3.489 4.934 3.489 8.723v16.862h3.554v5.753h-3.944zm-14.213-4.586q3.299-.001 5.426-1.456c1.424-.969 2.13-2.269 2.13-3.907V32.59h-5.945c-4.87 0-7.3 1.51-7.3 4.522v1.162q.002 2.262 1.52 3.393t4.169 1.129m-65.534 4.586V5.34h19.383c4.18 0 7.406 1.225 9.691 3.681 2.28 2.457 3.425 5.753 3.425 9.885q.001 6.198-3.425 9.884c-2.285 2.456-5.512 3.682-9.691 3.682H62.243v14.903h-7.3zm7.3-21.363h11.628q2.779-.001 4.33-1.44c1.032-.958 1.551-2.338 1.551-4.131v-3.072c0-1.793-.513-3.168-1.552-4.131q-1.55-1.439-4.33-1.44H62.244z"/>
  </g>
  <defs>
    <clipPath id="platzi-logo-minty_svg__a">
      <path fill="#fff" d="M0 0h200v52.503H0z"/>
    </clipPath>
  </defs>
</svg>


